<svg width="128" height="128" viewBox="0 0 128 128" fill="none" xmlns="http://www.w3.org/2000/svg">
  <rect width="128" height="128" rx="28" fill="white"/>
  <path d="M23 84C35 51 60 29 95 33" stroke="#6D28D9" stroke-width="8" stroke-linecap="round"/>
  <path d="M26 92C44 105 73 104 104 89" stroke="#7C3AED" stroke-width="6" stroke-linecap="round"/>
  <path d="M43.8 86C35.8 86 29.4 83.4 24.6 78.2C19.8 73 17.4 66.2 17.4 57.8C17.4 49.4 19.9 42.5 24.9 37.1C30 31.7 36.6 29 44.7 29C52 29 58.2 30.9 63.3 34.8L57.2 43.7C53.3 41 49.1 39.7 44.7 39.7C39.9 39.7 36 41.4 33.1 44.8C30.2 48.2 28.8 52.5 28.8 57.8C28.8 63 30.1 67.2 32.8 70.4C35.5 73.6 39.2 75.2 43.8 75.2C48.6 75.2 53.1 73.5 57.2 70.1L63.8 78.8C58.2 83.6 51.6 86 43.8 86Z" fill="#581C87"/>
  <path d="M66.5 70.9L69.4 57.4H83.1L87.1 38.2H102.1L98.1 57.4H111.2L108.9 70.9H95.3L91.8 87H76.8L80.3 70.9H66.5Z" fill="#F97316"/>
  <path d="M109.9 48.2C109.9 42.4 108.1 37.8 104.6 34.5C101.1 31.2 96.4 29.6 90.6 29.6H70.6L58.5 86.4H72.6L76.2 69.9H88.8C95.1 69.9 100.5 68 104.8 64.2C108.2 61.1 109.9 55.8 109.9 48.2ZM89.8 58.9H78.5L82.3 40.7H90.7C93.2 40.7 95.1 41.3 96.5 42.6C97.9 43.9 98.6 45.8 98.6 48.2C98.6 51.2 97.6 53.7 95.7 55.8C94.1 57.9 92.1 58.9 89.8 58.9Z" fill="#581C87" fill-opacity="0.0"/>
</svg>
